M48
;Layer_Color=9474304
;FILE_FORMAT=2:5
INCH,LZ
;TYPE=PLATED
T1F00S00C0.01181
T2F00S00C0.03543
T3F00S00C0.04724
;TYPE=NON_PLATED
T4F00S00C0.03937
T5F00S00C0.12598
%
T01
X0033465Y0023622
X0053543Y0019291
X0051181Y0033465
X0050808Y0048712
X0051575Y0066929
Y0076772
X0088189Y0061024
X0123397Y0060981
X0116535Y005315
X0110236Y0046457
T02
X007252Y0035433
X008252
X009252
X010252
T03
X0057087Y0085433
X0057087Y0093307
X0064961
Y0085433
X0072835
X0080709
X0088583
X0072835Y0093307
T04
X0131358Y0034646
X0146358
T05
X001378Y001378
Y0096457
X0183071
Y001378
M30
