G04*
G04 #@! TF.GenerationSoftware,Altium Limited,Altium Designer,23.4.1 (23)*
G04*
G04 Layer_Color=8388736*
%FSLAX44Y44*%
%MOMM*%
G71*
G04*
G04 #@! TF.SameCoordinates,E4356CB4-9A03-4441-A28E-8BB409EA4FDF*
G04*
G04*
G04 #@! TF.FilePolarity,Negative*
G04*
G01*
G75*
%ADD13R,0.8400X2.7000*%
%ADD14R,1.1000X4.1000*%
%ADD15R,0.7000X1.0000*%
G04:AMPARAMS|DCode=16|XSize=1.05mm|YSize=1.07mm|CornerRadius=0.145mm|HoleSize=0mm|Usage=FLASHONLY|Rotation=180.000|XOffset=0mm|YOffset=0mm|HoleType=Round|Shape=RoundedRectangle|*
%AMROUNDEDRECTD16*
21,1,1.0500,0.7800,0,0,180.0*
21,1,0.7600,1.0700,0,0,180.0*
1,1,0.2900,-0.3800,0.3900*
1,1,0.2900,0.3800,0.3900*
1,1,0.2900,0.3800,-0.3900*
1,1,0.2900,-0.3800,-0.3900*
%
%ADD16ROUNDEDRECTD16*%
G04:AMPARAMS|DCode=17|XSize=1.05mm|YSize=1.07mm|CornerRadius=0.145mm|HoleSize=0mm|Usage=FLASHONLY|Rotation=270.000|XOffset=0mm|YOffset=0mm|HoleType=Round|Shape=RoundedRectangle|*
%AMROUNDEDRECTD17*
21,1,1.0500,0.7800,0,0,270.0*
21,1,0.7600,1.0700,0,0,270.0*
1,1,0.2900,-0.3900,-0.3800*
1,1,0.2900,-0.3900,0.3800*
1,1,0.2900,0.3900,0.3800*
1,1,0.2900,0.3900,-0.3800*
%
%ADD17ROUNDEDRECTD17*%
%ADD18R,2.2000X1.5000*%
%ADD19C,1.7000*%
G04:AMPARAMS|DCode=20|XSize=1.7mm|YSize=1.7mm|CornerRadius=0.45mm|HoleSize=0mm|Usage=FLASHONLY|Rotation=90.000|XOffset=0mm|YOffset=0mm|HoleType=Round|Shape=RoundedRectangle|*
%AMROUNDEDRECTD20*
21,1,1.7000,0.8000,0,0,90.0*
21,1,0.8000,1.7000,0,0,90.0*
1,1,0.9000,0.4000,0.4000*
1,1,0.9000,0.4000,-0.4000*
1,1,0.9000,-0.4000,-0.4000*
1,1,0.9000,-0.4000,0.4000*
%
%ADD20ROUNDEDRECTD20*%
%ADD21C,0.1000*%
%ADD22C,2.1000*%
D13*
X327300Y66000D02*
D03*
Y110000D02*
D03*
X340000Y66000D02*
D03*
Y110000D02*
D03*
X352700Y66000D02*
D03*
Y110000D02*
D03*
X365400Y66000D02*
D03*
Y110000D02*
D03*
X378100Y66000D02*
D03*
Y110000D02*
D03*
D14*
X313500Y23000D02*
D03*
X338900D02*
D03*
X364300D02*
D03*
X161100D02*
D03*
X186500D02*
D03*
X211900D02*
D03*
X237300D02*
D03*
X262700D02*
D03*
X288100D02*
D03*
X135700D02*
D03*
D15*
X97500Y60000D02*
D03*
X112500D02*
D03*
D16*
X127900D02*
D03*
X142100D02*
D03*
D17*
X140000Y97900D02*
D03*
Y112100D02*
D03*
D18*
X18500Y127500D02*
D03*
X111500D02*
D03*
X18500Y82500D02*
D03*
X111500D02*
D03*
D19*
X145000Y217000D02*
D03*
X235000Y90000D02*
D03*
X209600D02*
D03*
X260400D02*
D03*
X165000Y237000D02*
D03*
X205000Y217000D02*
D03*
X225000D02*
D03*
X145000Y237000D02*
D03*
X185000D02*
D03*
X165000Y217000D02*
D03*
X185000D02*
D03*
D20*
X184200Y90000D02*
D03*
D21*
X333650Y88000D02*
D03*
X371750D02*
D03*
D22*
X465000Y245000D02*
D03*
X35000D02*
D03*
X465000Y35000D02*
D03*
X35000Y35000D02*
D03*
M02*
