G04*
G04 #@! TF.GenerationSoftware,Altium Limited,Altium Designer,23.4.1 (23)*
G04*
G04 Layer_Physical_Order=2*
G04 Layer_Color=16711680*
%FSLAX44Y44*%
%MOMM*%
G71*
G04*
G04 #@! TF.SameCoordinates,E4356CB4-9A03-4441-A28E-8BB409EA4FDF*
G04*
G04*
G04 #@! TF.FilePolarity,Positive*
G04*
G01*
G75*
%ADD24R,1.0000X4.0000*%
%ADD25R,0.6000X0.9000*%
G04:AMPARAMS|DCode=26|XSize=0.95mm|YSize=0.97mm|CornerRadius=0.095mm|HoleSize=0mm|Usage=FLASHONLY|Rotation=180.000|XOffset=0mm|YOffset=0mm|HoleType=Round|Shape=RoundedRectangle|*
%AMROUNDEDRECTD26*
21,1,0.9500,0.7800,0,0,180.0*
21,1,0.7600,0.9700,0,0,180.0*
1,1,0.1900,-0.3800,0.3900*
1,1,0.1900,0.3800,0.3900*
1,1,0.1900,0.3800,-0.3900*
1,1,0.1900,-0.3800,-0.3900*
%
%ADD26ROUNDEDRECTD26*%
%ADD28R,2.1000X1.4000*%
%ADD29C,0.5000*%
%ADD30C,0.2500*%
%ADD31C,1.6000*%
G04:AMPARAMS|DCode=32|XSize=1.6mm|YSize=1.6mm|CornerRadius=0.4mm|HoleSize=0mm|Usage=FLASHONLY|Rotation=90.000|XOffset=0mm|YOffset=0mm|HoleType=Round|Shape=RoundedRectangle|*
%AMROUNDEDRECTD32*
21,1,1.6000,0.8000,0,0,90.0*
21,1,0.8000,1.6000,0,0,90.0*
1,1,0.8000,0.4000,0.4000*
1,1,0.8000,0.4000,-0.4000*
1,1,0.8000,-0.4000,-0.4000*
1,1,0.8000,-0.4000,0.4000*
%
%ADD32ROUNDEDRECTD32*%
%ADD33C,2.0000*%
%ADD34C,0.6000*%
G36*
X497451Y2549D02*
X371800D01*
Y45500D01*
X356800D01*
Y2549D01*
X346400D01*
Y45500D01*
X331400D01*
Y2549D01*
X321000D01*
Y45500D01*
X318562D01*
Y152913D01*
X318929Y153798D01*
Y155985D01*
X318091Y158007D01*
X316544Y159554D01*
X314523Y160392D01*
X312335D01*
X311495Y160044D01*
X226196D01*
X225094Y160500D01*
X222906D01*
X220884Y159663D01*
X219337Y158116D01*
X218500Y156094D01*
Y153906D01*
X219337Y151884D01*
X220884Y150337D01*
X222906Y149500D01*
X225094D01*
X225934Y149848D01*
X308366D01*
Y45500D01*
X306000D01*
Y2549D01*
X295600D01*
Y45500D01*
X283093D01*
X282567Y46770D01*
X299605Y63808D01*
X300710Y65462D01*
X301098Y67413D01*
Y132935D01*
X301500Y133906D01*
Y136094D01*
X300663Y138116D01*
X299116Y139663D01*
X297094Y140500D01*
X294906D01*
X293935Y140098D01*
X222112D01*
X190098Y172112D01*
Y207819D01*
X191447Y208598D01*
X193402Y210553D01*
X194267Y212051D01*
X195733D01*
X196598Y210553D01*
X198553Y208598D01*
X200947Y207216D01*
X203618Y206500D01*
X206382D01*
X209053Y207216D01*
X211447Y208598D01*
X213402Y210553D01*
X214244Y212011D01*
X215710D01*
X216566Y210528D01*
X218528Y208566D01*
X220932Y207178D01*
X223612Y206460D01*
X223730D01*
Y217000D01*
Y227540D01*
X223612D01*
X220932Y226822D01*
X218528Y225434D01*
X216566Y223472D01*
X215710Y221989D01*
X214244D01*
X213402Y223447D01*
X211447Y225402D01*
X209053Y226784D01*
X206382Y227500D01*
X203618D01*
X200947Y226784D01*
X198553Y225402D01*
X196598Y223447D01*
X195733Y221950D01*
X194267D01*
X193402Y223447D01*
X191447Y225402D01*
X189949Y226267D01*
Y227733D01*
X191447Y228598D01*
X193402Y230553D01*
X194784Y232947D01*
X195500Y235618D01*
Y238382D01*
X194784Y241053D01*
X193402Y243447D01*
X191447Y245402D01*
X190098Y246181D01*
Y261071D01*
X189710Y263022D01*
X188605Y264676D01*
X185676Y267605D01*
X184022Y268710D01*
X182071Y269098D01*
X115000D01*
X113049Y268710D01*
X111395Y267605D01*
X100395Y256605D01*
X99290Y254951D01*
X98902Y253000D01*
Y196300D01*
X99290Y194349D01*
X100395Y192695D01*
X127395Y165695D01*
X127791Y165431D01*
X127885Y165337D01*
X128006Y165287D01*
X129049Y164590D01*
X131000Y164202D01*
X132951Y164590D01*
X133994Y165287D01*
X134115Y165337D01*
X134209Y165431D01*
X134605Y165695D01*
X134869Y166091D01*
X135663Y166884D01*
X136500Y168906D01*
Y171094D01*
X135663Y173116D01*
X134115Y174663D01*
X132094Y175500D01*
X132010D01*
X109098Y198412D01*
Y250888D01*
X117112Y258902D01*
X135051D01*
X135436Y257632D01*
X135395Y257605D01*
X127395Y249605D01*
X126290Y247951D01*
X125902Y246000D01*
Y197065D01*
X125500Y196094D01*
Y193906D01*
X126337Y191884D01*
X127885Y190337D01*
X129906Y189500D01*
X132094D01*
X134115Y190337D01*
X135663Y191884D01*
X136500Y193906D01*
Y196094D01*
X136098Y197065D01*
Y209200D01*
X137368Y209726D01*
X138528Y208566D01*
X140932Y207178D01*
X143612Y206460D01*
X143730D01*
Y217000D01*
X146270D01*
Y206460D01*
X146388D01*
X149068Y207178D01*
X151472Y208566D01*
X153434Y210528D01*
X154290Y212010D01*
X155756D01*
X156598Y210553D01*
X158553Y208598D01*
X160947Y207216D01*
X163618Y206500D01*
X166382D01*
X169053Y207216D01*
X171447Y208598D01*
X173402Y210553D01*
X174267Y212051D01*
X175733D01*
X176598Y210553D01*
X178553Y208598D01*
X179902Y207819D01*
Y170000D01*
X180290Y168049D01*
X181395Y166395D01*
X216395Y131395D01*
X218049Y130290D01*
X220000Y129902D01*
X290902D01*
Y69524D01*
X276476Y55098D01*
X268949D01*
X268564Y56368D01*
X268605Y56395D01*
X283605Y71395D01*
X284710Y73049D01*
X285098Y75000D01*
Y115935D01*
X285500Y116906D01*
Y119094D01*
X284663Y121116D01*
X283116Y122663D01*
X281094Y123500D01*
X278906D01*
X276884Y122663D01*
X275337Y121116D01*
X274500Y119094D01*
Y116906D01*
X274902Y115935D01*
Y77112D01*
X262888Y65098D01*
X225000D01*
X223049Y64710D01*
X221395Y63605D01*
X208295Y50505D01*
X207190Y48851D01*
X206802Y46900D01*
Y45500D01*
X204400D01*
Y2549D01*
X194000D01*
Y45500D01*
X179000D01*
Y2549D01*
X168600D01*
Y45500D01*
X153600D01*
Y2549D01*
X143200D01*
Y45500D01*
X141878D01*
X141029Y46770D01*
X141500Y47906D01*
Y50094D01*
X141012Y51272D01*
X141861Y52542D01*
X145900D01*
X147262Y52812D01*
X148416Y53584D01*
X149187Y54738D01*
X149458Y56100D01*
Y58730D01*
X142100D01*
Y60000D01*
X140830D01*
Y67458D01*
X138300D01*
X136938Y67188D01*
X135784Y66416D01*
X135740Y66350D01*
X134212Y66350D01*
X134187Y66387D01*
X133046Y67150D01*
X131700Y67418D01*
X124100D01*
X122754Y67150D01*
X121613Y66387D01*
X120850Y65246D01*
X120821Y65098D01*
X118000D01*
Y67000D01*
X107000D01*
Y66000D01*
X103000D01*
Y67000D01*
X92000D01*
Y65098D01*
X90098D01*
Y102888D01*
X105210Y118000D01*
X124500D01*
Y118843D01*
X125673Y119329D01*
X125936Y119066D01*
X127958Y118229D01*
X130146D01*
X132167Y119066D01*
X133714Y120614D01*
X134552Y122635D01*
Y124823D01*
X133714Y126845D01*
X132167Y128392D01*
X130146Y129229D01*
X127958D01*
X125936Y128392D01*
X125673Y128129D01*
X124500Y128615D01*
Y137000D01*
X98500D01*
Y125710D01*
X81395Y108605D01*
X80290Y106951D01*
X79902Y105000D01*
Y62065D01*
X79500Y61094D01*
Y58906D01*
X80337Y56884D01*
X81884Y55337D01*
X83906Y54500D01*
X86094D01*
X87065Y54902D01*
X92000D01*
Y53000D01*
X103000D01*
Y54000D01*
X107000D01*
Y53000D01*
X118000D01*
Y54902D01*
X120821D01*
X120850Y54754D01*
X121613Y53613D01*
X122754Y52850D01*
X124100Y52582D01*
X130156D01*
X131005Y51312D01*
X130500Y50094D01*
Y47906D01*
X130971Y46770D01*
X130122Y45500D01*
X128200D01*
Y2549D01*
X2549D01*
Y277451D01*
X497451D01*
Y2549D01*
D02*
G37*
G36*
X280600Y44008D02*
Y2549D01*
X270200D01*
Y44902D01*
X278587D01*
X279330Y45050D01*
X280600Y44008D01*
D02*
G37*
G36*
X255200Y2549D02*
X244800D01*
Y42590D01*
X247112Y44902D01*
X255200D01*
Y2549D01*
D02*
G37*
G36*
X241436Y53632D02*
X241395Y53605D01*
X235348Y47558D01*
X234243Y45904D01*
X234163Y45500D01*
X229800D01*
Y2549D01*
X219400D01*
Y45500D01*
X219369D01*
X218883Y46673D01*
X227112Y54902D01*
X241051D01*
X241436Y53632D01*
D02*
G37*
%LPC*%
G36*
X466871Y264000D02*
X463129D01*
X459458Y263270D01*
X456000Y261838D01*
X452888Y259758D01*
X450242Y257112D01*
X448162Y254000D01*
X446730Y250542D01*
X446000Y246871D01*
Y243129D01*
X446730Y239458D01*
X448162Y236000D01*
X450242Y232888D01*
X452888Y230242D01*
X456000Y228162D01*
X459458Y226730D01*
X463129Y226000D01*
X466871D01*
X470542Y226730D01*
X474000Y228162D01*
X477112Y230242D01*
X479758Y232888D01*
X481838Y236000D01*
X483270Y239458D01*
X484000Y243129D01*
Y246871D01*
X483270Y250542D01*
X481838Y254000D01*
X479758Y257112D01*
X477112Y259758D01*
X474000Y261838D01*
X470542Y263270D01*
X466871Y264000D01*
D02*
G37*
G36*
X36871D02*
X33129D01*
X29458Y263270D01*
X26000Y261838D01*
X22888Y259758D01*
X20242Y257112D01*
X18162Y254000D01*
X16730Y250542D01*
X16000Y246871D01*
Y243129D01*
X16730Y239458D01*
X18162Y236000D01*
X20242Y232888D01*
X22888Y230242D01*
X26000Y228162D01*
X29458Y226730D01*
X33129Y226000D01*
X36871D01*
X40542Y226730D01*
X44000Y228162D01*
X47112Y230242D01*
X49758Y232888D01*
X51838Y236000D01*
X53270Y239458D01*
X54000Y243129D01*
Y246871D01*
X53270Y250542D01*
X51838Y254000D01*
X49758Y257112D01*
X47112Y259758D01*
X44000Y261838D01*
X40542Y263270D01*
X36871Y264000D01*
D02*
G37*
G36*
X226388Y227540D02*
X226270D01*
Y218270D01*
X235540D01*
Y218388D01*
X234822Y221068D01*
X233434Y223472D01*
X231472Y225434D01*
X229068Y226822D01*
X226388Y227540D01*
D02*
G37*
G36*
X235540Y215730D02*
X226270D01*
Y206460D01*
X226388D01*
X229068Y207178D01*
X231472Y208566D01*
X233434Y210528D01*
X234822Y212932D01*
X235540Y215612D01*
Y215730D01*
D02*
G37*
G36*
X31500Y137000D02*
X5500D01*
Y118000D01*
X31500D01*
Y137000D01*
D02*
G37*
G36*
X261788Y100540D02*
X261670D01*
Y91270D01*
X270940D01*
Y91388D01*
X270222Y94068D01*
X268834Y96472D01*
X266872Y98434D01*
X264468Y99822D01*
X261788Y100540D01*
D02*
G37*
G36*
X259130D02*
X259012D01*
X256332Y99822D01*
X253928Y98434D01*
X251966Y96472D01*
X250578Y94068D01*
X249860Y91388D01*
Y91270D01*
X259130D01*
Y100540D01*
D02*
G37*
G36*
X372803Y96000D02*
X370697D01*
X368662Y95455D01*
X366838Y94402D01*
X365348Y92912D01*
X364295Y91088D01*
X363750Y89053D01*
Y86947D01*
X364295Y84912D01*
X365348Y83088D01*
X366838Y81598D01*
X368662Y80545D01*
X370697Y80000D01*
X372803D01*
X374838Y80545D01*
X376662Y81598D01*
X378152Y83088D01*
X379205Y84912D01*
X379750Y86947D01*
Y89053D01*
X379205Y91088D01*
X378152Y92912D01*
X376662Y94402D01*
X374838Y95455D01*
X372803Y96000D01*
D02*
G37*
G36*
X334703D02*
X332597D01*
X330562Y95455D01*
X328738Y94402D01*
X327248Y92912D01*
X326195Y91088D01*
X325650Y89053D01*
Y86947D01*
X326195Y84912D01*
X327248Y83088D01*
X328738Y81598D01*
X330562Y80545D01*
X332597Y80000D01*
X334703D01*
X336738Y80545D01*
X338562Y81598D01*
X340052Y83088D01*
X341105Y84912D01*
X341650Y86947D01*
Y89053D01*
X341105Y91088D01*
X340052Y92912D01*
X338562Y94402D01*
X336738Y95455D01*
X334703Y96000D01*
D02*
G37*
G36*
X236382Y100500D02*
X233618D01*
X230947Y99784D01*
X228553Y98402D01*
X226598Y96447D01*
X225216Y94053D01*
X224500Y91382D01*
Y88618D01*
X225216Y85947D01*
X226598Y83553D01*
X228553Y81598D01*
X230947Y80216D01*
X233618Y79500D01*
X236382D01*
X239053Y80216D01*
X241447Y81598D01*
X243402Y83553D01*
X244784Y85947D01*
X245500Y88618D01*
Y91382D01*
X244784Y94053D01*
X243402Y96447D01*
X241447Y98402D01*
X239053Y99784D01*
X236382Y100500D01*
D02*
G37*
G36*
X210982D02*
X208218D01*
X205547Y99784D01*
X203153Y98402D01*
X201198Y96447D01*
X199816Y94053D01*
X199100Y91382D01*
Y88618D01*
X199816Y85947D01*
X201198Y83553D01*
X203153Y81598D01*
X205547Y80216D01*
X208218Y79500D01*
X210982D01*
X213653Y80216D01*
X216047Y81598D01*
X218002Y83553D01*
X219384Y85947D01*
X220100Y88618D01*
Y91382D01*
X219384Y94053D01*
X218002Y96447D01*
X216047Y98402D01*
X213653Y99784D01*
X210982Y100500D01*
D02*
G37*
G36*
X270940Y88730D02*
X261670D01*
Y79460D01*
X261788D01*
X264468Y80178D01*
X266872Y81566D01*
X268834Y83528D01*
X270222Y85932D01*
X270940Y88612D01*
Y88730D01*
D02*
G37*
G36*
X259130D02*
X249860D01*
Y88612D01*
X250578Y85932D01*
X251966Y83528D01*
X253928Y81566D01*
X256332Y80178D01*
X259012Y79460D01*
X259130D01*
Y88730D01*
D02*
G37*
G36*
X188200Y100556D02*
X180200D01*
X178503Y100333D01*
X176922Y99678D01*
X175564Y98636D01*
X174522Y97278D01*
X173867Y95697D01*
X173644Y94000D01*
Y86000D01*
X173867Y84303D01*
X174522Y82722D01*
X175564Y81364D01*
X176922Y80322D01*
X178503Y79667D01*
X180200Y79444D01*
X188200D01*
X189897Y79667D01*
X191478Y80322D01*
X192836Y81364D01*
X193878Y82722D01*
X194533Y84303D01*
X194756Y86000D01*
Y94000D01*
X194533Y95697D01*
X193878Y97278D01*
X192836Y98636D01*
X191478Y99678D01*
X189897Y100333D01*
X188200Y100556D01*
D02*
G37*
G36*
X124500Y92000D02*
X98500D01*
Y73000D01*
X124500D01*
Y77402D01*
X127500D01*
X129451Y77790D01*
X131105Y78895D01*
X132145Y79935D01*
X133116Y80337D01*
X134663Y81884D01*
X135500Y83906D01*
Y86094D01*
X134663Y88116D01*
X133116Y89663D01*
X131094Y90500D01*
X128906D01*
X126884Y89663D01*
X125770Y88548D01*
X124500Y89074D01*
Y92000D01*
D02*
G37*
G36*
X31500D02*
X5500D01*
Y73000D01*
X31500D01*
Y92000D01*
D02*
G37*
G36*
X145900Y67458D02*
X143370D01*
Y61270D01*
X149458D01*
Y63900D01*
X149187Y65262D01*
X148416Y66416D01*
X147262Y67188D01*
X145900Y67458D01*
D02*
G37*
G36*
X36871Y54000D02*
X33129D01*
X29458Y53270D01*
X26000Y51838D01*
X22888Y49758D01*
X20242Y47112D01*
X18162Y44000D01*
X16730Y40542D01*
X16000Y36871D01*
Y33129D01*
X16730Y29458D01*
X18162Y26000D01*
X20242Y22888D01*
X22888Y20242D01*
X26000Y18162D01*
X29458Y16730D01*
X33129Y16000D01*
X36871D01*
X40542Y16730D01*
X44000Y18162D01*
X47112Y20242D01*
X49758Y22888D01*
X51838Y26000D01*
X53270Y29458D01*
X54000Y33129D01*
Y36871D01*
X53270Y40542D01*
X51838Y44000D01*
X49758Y47112D01*
X47112Y49758D01*
X44000Y51838D01*
X40542Y53270D01*
X36871Y54000D01*
D02*
G37*
G36*
X466871Y54000D02*
X463129D01*
X459458Y53270D01*
X456000Y51838D01*
X452888Y49758D01*
X450242Y47112D01*
X448162Y44000D01*
X446730Y40542D01*
X446000Y36871D01*
Y33129D01*
X446730Y29458D01*
X448162Y26000D01*
X450242Y22888D01*
X452888Y20242D01*
X456000Y18162D01*
X459458Y16730D01*
X463129Y16000D01*
X466871D01*
X470542Y16730D01*
X474000Y18162D01*
X477112Y20242D01*
X479758Y22888D01*
X481838Y26000D01*
X483270Y29458D01*
X484000Y33129D01*
Y36871D01*
X483270Y40542D01*
X481838Y44000D01*
X479758Y47112D01*
X477112Y49758D01*
X474000Y51838D01*
X470542Y53270D01*
X466871Y54000D01*
D02*
G37*
%LPD*%
D24*
X135700Y23000D02*
D03*
X161100D02*
D03*
X186500D02*
D03*
X211900D02*
D03*
X237300D02*
D03*
X262700D02*
D03*
X288100D02*
D03*
X313500D02*
D03*
X338900D02*
D03*
X364300D02*
D03*
D25*
X97500Y60000D02*
D03*
X112500D02*
D03*
D26*
X127900D02*
D03*
X142100D02*
D03*
D28*
X111500Y127500D02*
D03*
X18500D02*
D03*
X111500Y82500D02*
D03*
X18500D02*
D03*
D29*
X104000Y196300D02*
Y253000D01*
X115000Y264000D02*
X182071D01*
X104000Y253000D02*
X115000Y264000D01*
X104000Y196300D02*
X131000Y169300D01*
X224000Y155000D02*
X224054Y154946D01*
X313374D01*
X313429Y154892D01*
X220000Y135000D02*
X296000D01*
X185000Y170000D02*
Y217000D01*
Y170000D02*
X220000Y135000D01*
X185000Y237000D02*
Y261071D01*
X182071Y264000D02*
X185000Y261071D01*
X131000Y195000D02*
Y246000D01*
X139000Y254000D01*
X165000Y237000D02*
Y251071D01*
X162071Y254000D02*
X165000Y251071D01*
X139000Y254000D02*
X162071D01*
X313464Y23036D02*
X313500Y23000D01*
X313464Y23036D02*
Y154856D01*
X313429Y154892D02*
X313464Y154856D01*
X278587Y50000D02*
X296000Y67413D01*
Y135000D01*
X280000Y75000D02*
Y118000D01*
X265000Y60000D02*
X280000Y75000D01*
X103000Y123000D02*
X103500D01*
X85000Y60000D02*
X97500D01*
X211900Y20000D02*
Y46900D01*
X127500Y82500D02*
X130000Y85000D01*
X85000Y105000D02*
X103000Y123000D01*
X211900Y46900D02*
X225000Y60000D01*
X238953Y21653D02*
Y43953D01*
X105000Y124500D02*
Y125000D01*
X85000Y60000D02*
Y105000D01*
X225000Y60000D02*
X265000D01*
X112500D02*
X127900D01*
X245000Y50000D02*
X278587D01*
X103500Y123000D02*
X105000Y124500D01*
X111500Y82500D02*
X127500D01*
X238953Y43953D02*
X245000Y50000D01*
D30*
X135700Y23000D02*
X136000Y23300D01*
Y49000D01*
D31*
X145000Y217000D02*
D03*
X235000Y90000D02*
D03*
X209600D02*
D03*
X260400D02*
D03*
X165000Y237000D02*
D03*
X205000Y217000D02*
D03*
X225000D02*
D03*
X145000Y237000D02*
D03*
X185000D02*
D03*
X165000Y217000D02*
D03*
X185000D02*
D03*
D32*
X184200Y90000D02*
D03*
D33*
X465000Y245000D02*
D03*
X35000D02*
D03*
X465000Y35000D02*
D03*
X35000Y35000D02*
D03*
D34*
X136000Y49000D02*
D03*
X224000Y155000D02*
D03*
X131000Y195000D02*
D03*
Y170000D02*
D03*
X296000Y135000D02*
D03*
X280000Y118000D02*
D03*
X130000Y85000D02*
D03*
X313429Y154892D02*
D03*
X85000Y60000D02*
D03*
X129052Y123729D02*
D03*
M02*
