G04*
G04 #@! TF.GenerationSoftware,Altium Limited,Altium Designer,23.4.1 (23)*
G04*
G04 Layer_Physical_Order=1*
G04 Layer_Color=255*
%FSLAX44Y44*%
%MOMM*%
G71*
G04*
G04 #@! TF.SameCoordinates,E4356CB4-9A03-4441-A28E-8BB409EA4FDF*
G04*
G04*
G04 #@! TF.FilePolarity,Positive*
G04*
G01*
G75*
%ADD23R,0.7400X2.6000*%
%ADD24R,1.0000X4.0000*%
%ADD25R,0.6000X0.9000*%
G04:AMPARAMS|DCode=26|XSize=0.95mm|YSize=0.97mm|CornerRadius=0.095mm|HoleSize=0mm|Usage=FLASHONLY|Rotation=180.000|XOffset=0mm|YOffset=0mm|HoleType=Round|Shape=RoundedRectangle|*
%AMROUNDEDRECTD26*
21,1,0.9500,0.7800,0,0,180.0*
21,1,0.7600,0.9700,0,0,180.0*
1,1,0.1900,-0.3800,0.3900*
1,1,0.1900,0.3800,0.3900*
1,1,0.1900,0.3800,-0.3900*
1,1,0.1900,-0.3800,-0.3900*
%
%ADD26ROUNDEDRECTD26*%
G04:AMPARAMS|DCode=27|XSize=0.95mm|YSize=0.97mm|CornerRadius=0.095mm|HoleSize=0mm|Usage=FLASHONLY|Rotation=270.000|XOffset=0mm|YOffset=0mm|HoleType=Round|Shape=RoundedRectangle|*
%AMROUNDEDRECTD27*
21,1,0.9500,0.7800,0,0,270.0*
21,1,0.7600,0.9700,0,0,270.0*
1,1,0.1900,-0.3900,-0.3800*
1,1,0.1900,-0.3900,0.3800*
1,1,0.1900,0.3900,0.3800*
1,1,0.1900,0.3900,-0.3800*
%
%ADD27ROUNDEDRECTD27*%
%ADD28R,2.1000X1.4000*%
%ADD29C,0.5000*%
%ADD30C,0.2500*%
%ADD31C,1.6000*%
G04:AMPARAMS|DCode=32|XSize=1.6mm|YSize=1.6mm|CornerRadius=0.4mm|HoleSize=0mm|Usage=FLASHONLY|Rotation=90.000|XOffset=0mm|YOffset=0mm|HoleType=Round|Shape=RoundedRectangle|*
%AMROUNDEDRECTD32*
21,1,1.6000,0.8000,0,0,90.0*
21,1,0.8000,1.6000,0,0,90.0*
1,1,0.8000,0.4000,0.4000*
1,1,0.8000,0.4000,-0.4000*
1,1,0.8000,-0.4000,-0.4000*
1,1,0.8000,-0.4000,0.4000*
%
%ADD32ROUNDEDRECTD32*%
%ADD33C,2.0000*%
%ADD34C,0.6000*%
G36*
X497451Y2549D02*
X371840D01*
Y21730D01*
X356760D01*
Y2549D01*
X346440D01*
Y21730D01*
X331360D01*
Y2549D01*
X321040D01*
Y21730D01*
X305960D01*
Y2549D01*
X295640D01*
Y21730D01*
X280560D01*
Y2549D01*
X270240D01*
Y21730D01*
X255160D01*
Y2549D01*
X244840D01*
Y21730D01*
X229760D01*
Y2549D01*
X219440D01*
Y21730D01*
X204360D01*
Y2549D01*
X194040D01*
Y21730D01*
X178960D01*
Y2549D01*
X168640D01*
Y21730D01*
X153560D01*
Y2549D01*
X143200D01*
Y45500D01*
X141878D01*
X141029Y46770D01*
X141500Y47906D01*
Y50094D01*
X141012Y51272D01*
X141861Y52542D01*
X145900D01*
X147262Y52812D01*
X148416Y53584D01*
X149187Y54738D01*
X149458Y56100D01*
Y58730D01*
X142100D01*
Y60000D01*
X140830D01*
Y67458D01*
X138300D01*
X136938Y67188D01*
X135784Y66416D01*
X135740Y66350D01*
X134212Y66350D01*
X134187Y66387D01*
X133046Y67150D01*
X131700Y67418D01*
X124100D01*
X122754Y67150D01*
X121613Y66387D01*
X120850Y65246D01*
X120821Y65098D01*
X118000D01*
Y67000D01*
X107000D01*
Y66000D01*
X103000D01*
Y67000D01*
X92000D01*
Y65098D01*
X87065D01*
X86094Y65500D01*
X83906D01*
X81884Y64663D01*
X81368Y64146D01*
X80098Y64672D01*
Y67888D01*
X87112Y74902D01*
X98500D01*
Y73000D01*
X124500D01*
Y77469D01*
X127296D01*
X129247Y77857D01*
X130901Y78962D01*
X131683Y79744D01*
X133116Y80337D01*
X134663Y81884D01*
X135065Y82855D01*
X142792Y90582D01*
X143900D01*
X145246Y90850D01*
X146387Y91613D01*
X147150Y92754D01*
X147418Y94100D01*
Y94902D01*
X172088D01*
X173644Y93347D01*
Y86000D01*
X173867Y84303D01*
X174522Y82722D01*
X175564Y81364D01*
X176922Y80322D01*
X178503Y79667D01*
X180200Y79444D01*
X188200D01*
X188329Y79461D01*
X201395Y66395D01*
X203049Y65290D01*
X205000Y64902D01*
X240000D01*
X241951Y65290D01*
X243605Y66395D01*
X251320Y74110D01*
X252425Y75764D01*
X252813Y77715D01*
Y81092D01*
X254083Y81477D01*
X256332Y80178D01*
X259012Y79460D01*
X259130D01*
Y90000D01*
X260400D01*
Y91270D01*
X270940D01*
Y91388D01*
X270222Y94068D01*
X268834Y96472D01*
X266872Y98434D01*
X266529Y98632D01*
X266869Y99902D01*
X272888D01*
X310395Y62395D01*
X312049Y61290D01*
X314000Y60902D01*
X321100D01*
Y50500D01*
X333500D01*
Y50500D01*
X333800D01*
Y50500D01*
X345207D01*
X346460Y50460D01*
X347453Y50460D01*
X351430D01*
Y66000D01*
Y81540D01*
X347453D01*
X346460Y81540D01*
X345207Y81500D01*
X340260D01*
X339734Y82770D01*
X340052Y83088D01*
X341105Y84912D01*
X341650Y86947D01*
Y89053D01*
X341105Y91088D01*
X340052Y92912D01*
X339734Y93230D01*
X340260Y94500D01*
X345230D01*
X346200Y94500D01*
X347470Y94500D01*
X357930D01*
X358900Y94500D01*
X360170Y94500D01*
X365140D01*
X365666Y93230D01*
X365348Y92912D01*
X364295Y91088D01*
X363750Y89053D01*
Y86947D01*
X364295Y84912D01*
X365348Y83088D01*
X365666Y82770D01*
X365140Y81500D01*
X360193D01*
X358940Y81540D01*
X357947Y81540D01*
X353970D01*
Y66000D01*
Y50460D01*
X357947D01*
X358940Y50460D01*
X360193Y50500D01*
X371600D01*
Y50500D01*
X371900D01*
Y50500D01*
X384300D01*
Y81500D01*
X378360D01*
X377834Y82770D01*
X378152Y83088D01*
X379205Y84912D01*
X379750Y86947D01*
Y89053D01*
X379205Y91088D01*
X378152Y92912D01*
X377834Y93230D01*
X378360Y94500D01*
X384300D01*
Y125500D01*
X383198D01*
Y141900D01*
X382810Y143851D01*
X381705Y145505D01*
X368865Y158345D01*
X367211Y159450D01*
X365260Y159838D01*
X315860D01*
X314523Y160392D01*
X312335D01*
X310313Y159554D01*
X308766Y158007D01*
X307929Y155985D01*
Y153798D01*
X308766Y151776D01*
X310313Y150229D01*
X312335Y149391D01*
X314523D01*
X315127Y149642D01*
X363149D01*
X373002Y139788D01*
Y125906D01*
X371900Y125500D01*
X371600D01*
Y125500D01*
X360170D01*
X359200Y125500D01*
X357930Y125500D01*
X345996Y125500D01*
X345098Y126398D01*
Y130000D01*
X344710Y131951D01*
X343605Y133605D01*
X338605Y138605D01*
X336951Y139710D01*
X335000Y140098D01*
X298065D01*
X297094Y140500D01*
X294906D01*
X292885Y139663D01*
X291337Y138116D01*
X290500Y136094D01*
Y133906D01*
X291337Y131884D01*
X292885Y130337D01*
X294906Y129500D01*
X297094D01*
X298065Y129902D01*
X332888D01*
X334902Y127888D01*
Y125906D01*
X333800Y125500D01*
X333500D01*
Y125500D01*
X321100D01*
Y123098D01*
X285098D01*
Y125000D01*
X284710Y126951D01*
X283605Y128605D01*
X210098Y202112D01*
Y207819D01*
X211447Y208598D01*
X213402Y210553D01*
X214244Y212011D01*
X215710D01*
X216566Y210528D01*
X218528Y208566D01*
X220932Y207178D01*
X223612Y206460D01*
X223730D01*
Y217000D01*
Y227540D01*
X223612D01*
X220932Y226822D01*
X218528Y225434D01*
X216566Y223472D01*
X215710Y221989D01*
X214244D01*
X213402Y223447D01*
X211447Y225402D01*
X209053Y226784D01*
X206382Y227500D01*
X203618D01*
X200947Y226784D01*
X198553Y225402D01*
X196598Y223447D01*
X195733Y221950D01*
X194267D01*
X193402Y223447D01*
X191447Y225402D01*
X189949Y226267D01*
Y227733D01*
X191447Y228598D01*
X193402Y230553D01*
X194784Y232947D01*
X195500Y235618D01*
Y238382D01*
X194784Y241053D01*
X193402Y243447D01*
X191447Y245402D01*
X189053Y246784D01*
X186382Y247500D01*
X183618D01*
X180947Y246784D01*
X178553Y245402D01*
X176598Y243447D01*
X175733Y241950D01*
X174267D01*
X173402Y243447D01*
X171447Y245402D01*
X169053Y246784D01*
X166382Y247500D01*
X163618D01*
X160947Y246784D01*
X158553Y245402D01*
X156598Y243447D01*
X155733Y241950D01*
X154267D01*
X153402Y243447D01*
X151447Y245402D01*
X149053Y246784D01*
X146382Y247500D01*
X143618D01*
X140947Y246784D01*
X138553Y245402D01*
X136598Y243447D01*
X135216Y241053D01*
X134500Y238382D01*
Y235618D01*
X134903Y234113D01*
X106395Y205605D01*
X105290Y203951D01*
X104902Y202000D01*
Y145000D01*
Y137000D01*
X98500D01*
Y125265D01*
X98290Y124951D01*
X97902Y123000D01*
X98290Y121049D01*
X98500Y120735D01*
Y118000D01*
X102507D01*
X103000Y117902D01*
X103500D01*
X103993Y118000D01*
X124500D01*
Y118731D01*
X125673Y119217D01*
X132582Y112308D01*
Y108300D01*
X132850Y106954D01*
X133613Y105813D01*
X133686Y105764D01*
Y104236D01*
X133613Y104187D01*
X132850Y103046D01*
X132582Y101700D01*
Y94792D01*
X127855Y90065D01*
X126884Y89663D01*
X125770Y88548D01*
X124500Y89074D01*
Y92000D01*
X98500D01*
Y85098D01*
X85000D01*
X83049Y84710D01*
X81395Y83605D01*
X71395Y73605D01*
X70290Y71951D01*
X69902Y70000D01*
Y55000D01*
X70290Y53049D01*
X71395Y51395D01*
X99324Y23466D01*
X100978Y22361D01*
X102929Y21973D01*
X128200D01*
Y2549D01*
X2549D01*
Y277451D01*
X497451D01*
Y2549D01*
D02*
G37*
G36*
X134460Y217454D02*
Y215612D01*
X135178Y212932D01*
X136566Y210528D01*
X138528Y208566D01*
X140932Y207178D01*
X143612Y206460D01*
X143730D01*
Y217000D01*
X146270D01*
Y206460D01*
X146388D01*
X149068Y207178D01*
X151472Y208566D01*
X153434Y210528D01*
X154290Y212010D01*
X155756D01*
X156598Y210553D01*
X158553Y208598D01*
X160947Y207216D01*
X163618Y206500D01*
X166290D01*
X218500Y154290D01*
Y153906D01*
X219337Y151884D01*
X220884Y150337D01*
X222906Y149500D01*
X225094D01*
X227115Y150337D01*
X228663Y151884D01*
X229500Y153906D01*
Y156094D01*
X228663Y158116D01*
X228474Y158305D01*
X227605Y159605D01*
X181441Y205768D01*
X182099Y206907D01*
X183618Y206500D01*
X186382D01*
X189053Y207216D01*
X191447Y208598D01*
X193402Y210553D01*
X194267Y212051D01*
X195733D01*
X196598Y210553D01*
X198553Y208598D01*
X199902Y207819D01*
Y200000D01*
X200290Y198049D01*
X201395Y196395D01*
X274902Y122888D01*
Y120065D01*
X274500Y119094D01*
Y116906D01*
X275337Y114885D01*
X276884Y113337D01*
X278906Y112500D01*
X281094D01*
X282065Y112902D01*
X321100D01*
Y94500D01*
X327040D01*
X327566Y93230D01*
X327248Y92912D01*
X326195Y91088D01*
X325650Y89053D01*
Y86947D01*
X326195Y84912D01*
X327248Y83088D01*
X327566Y82770D01*
X327040Y81500D01*
X321100D01*
Y71098D01*
X316112D01*
X278605Y108605D01*
X276951Y109710D01*
X275000Y110098D01*
X255000D01*
X253049Y109710D01*
X251395Y108605D01*
X244110Y101320D01*
X243005Y99666D01*
X242835Y98811D01*
X241457Y98392D01*
X241447Y98402D01*
X239053Y99784D01*
X236382Y100500D01*
X233618D01*
X232507Y100202D01*
X136418Y196291D01*
X135663Y198116D01*
X134115Y199663D01*
X132094Y200500D01*
X129906D01*
X127885Y199663D01*
X126337Y198116D01*
X125500Y196094D01*
Y193906D01*
X126337Y191884D01*
X127885Y190337D01*
X128002Y190289D01*
X225009Y93281D01*
X224500Y91382D01*
Y88618D01*
X225216Y85947D01*
X226598Y83553D01*
X228553Y81598D01*
X230947Y80216D01*
X233618Y79500D01*
X236382D01*
X239053Y80216D01*
X241347Y81540D01*
X242046Y81350D01*
X242617Y81114D01*
Y79826D01*
X237888Y75098D01*
X207112D01*
X194756Y87453D01*
Y94000D01*
X194533Y95697D01*
X193878Y97278D01*
X193421Y97874D01*
X194377Y98713D01*
X199651Y93439D01*
X199100Y91382D01*
Y88618D01*
X199816Y85947D01*
X201198Y83553D01*
X203153Y81598D01*
X205547Y80216D01*
X208218Y79500D01*
X210982D01*
X213653Y80216D01*
X216047Y81598D01*
X218002Y83553D01*
X219384Y85947D01*
X220100Y88618D01*
Y91382D01*
X219384Y94053D01*
X218002Y96447D01*
X216047Y98402D01*
X213653Y99784D01*
X210982Y100500D01*
X208218D01*
X207265Y100245D01*
X136500Y171010D01*
Y171094D01*
X135663Y173116D01*
X134115Y174663D01*
X132094Y175500D01*
X129906D01*
X127885Y174663D01*
X126337Y173116D01*
X125500Y171094D01*
Y168906D01*
X126337Y166884D01*
X127131Y166091D01*
X127395Y165695D01*
X192913Y100177D01*
X192074Y99221D01*
X191478Y99678D01*
X189897Y100333D01*
X188200Y100556D01*
X180854D01*
X177805Y103605D01*
X176151Y104710D01*
X174200Y105098D01*
X147430D01*
X146758Y106368D01*
X147150Y106954D01*
X147418Y108300D01*
Y115900D01*
X147150Y117246D01*
X146387Y118387D01*
X145246Y119150D01*
X143900Y119418D01*
X139892D01*
X134552Y124758D01*
Y124823D01*
X133714Y126845D01*
X132167Y128392D01*
X130146Y129229D01*
X130033D01*
X128522Y130239D01*
X126571Y130627D01*
X124500D01*
Y137000D01*
X115098D01*
Y145000D01*
Y199888D01*
X133190Y217980D01*
X134460Y217454D01*
D02*
G37*
G36*
X120850Y54754D02*
X121613Y53613D01*
X122754Y52850D01*
X124100Y52582D01*
X130156D01*
X131005Y51312D01*
X130500Y50094D01*
Y47906D01*
X130971Y46770D01*
X130122Y45500D01*
X128200D01*
Y32169D01*
X105041D01*
X83980Y53230D01*
X84506Y54500D01*
X86094D01*
X87065Y54902D01*
X92000D01*
Y53000D01*
X103000D01*
Y54000D01*
X107000D01*
Y53000D01*
X118000D01*
Y54902D01*
X120821D01*
X120850Y54754D01*
D02*
G37*
%LPC*%
G36*
X466871Y264000D02*
X463129D01*
X459458Y263270D01*
X456000Y261838D01*
X452888Y259758D01*
X450242Y257112D01*
X448162Y254000D01*
X446730Y250542D01*
X446000Y246871D01*
Y243129D01*
X446730Y239458D01*
X448162Y236000D01*
X450242Y232888D01*
X452888Y230242D01*
X456000Y228162D01*
X459458Y226730D01*
X463129Y226000D01*
X466871D01*
X470542Y226730D01*
X474000Y228162D01*
X477112Y230242D01*
X479758Y232888D01*
X481838Y236000D01*
X483270Y239458D01*
X484000Y243129D01*
Y246871D01*
X483270Y250542D01*
X481838Y254000D01*
X479758Y257112D01*
X477112Y259758D01*
X474000Y261838D01*
X470542Y263270D01*
X466871Y264000D01*
D02*
G37*
G36*
X36871D02*
X33129D01*
X29458Y263270D01*
X26000Y261838D01*
X22888Y259758D01*
X20242Y257112D01*
X18162Y254000D01*
X16730Y250542D01*
X16000Y246871D01*
Y243129D01*
X16730Y239458D01*
X18162Y236000D01*
X20242Y232888D01*
X22888Y230242D01*
X26000Y228162D01*
X29458Y226730D01*
X33129Y226000D01*
X36871D01*
X40542Y226730D01*
X44000Y228162D01*
X47112Y230242D01*
X49758Y232888D01*
X51838Y236000D01*
X53270Y239458D01*
X54000Y243129D01*
Y246871D01*
X53270Y250542D01*
X51838Y254000D01*
X49758Y257112D01*
X47112Y259758D01*
X44000Y261838D01*
X40542Y263270D01*
X36871Y264000D01*
D02*
G37*
G36*
X226388Y227540D02*
X226270D01*
Y218270D01*
X235540D01*
Y218388D01*
X234822Y221068D01*
X233434Y223472D01*
X231472Y225434D01*
X229068Y226822D01*
X226388Y227540D01*
D02*
G37*
G36*
X235540Y215730D02*
X226270D01*
Y206460D01*
X226388D01*
X229068Y207178D01*
X231472Y208566D01*
X233434Y210528D01*
X234822Y212932D01*
X235540Y215612D01*
Y215730D01*
D02*
G37*
G36*
X31500Y137000D02*
X5500D01*
Y118000D01*
X31500D01*
Y137000D01*
D02*
G37*
G36*
X270940Y88730D02*
X261670D01*
Y79460D01*
X261788D01*
X264468Y80178D01*
X266872Y81566D01*
X268834Y83528D01*
X270222Y85932D01*
X270940Y88612D01*
Y88730D01*
D02*
G37*
G36*
X31500Y92000D02*
X5500D01*
Y73000D01*
X31500D01*
Y92000D01*
D02*
G37*
G36*
X145900Y67458D02*
X143370D01*
Y61270D01*
X149458D01*
Y63900D01*
X149187Y65262D01*
X148416Y66416D01*
X147262Y67188D01*
X145900Y67458D01*
D02*
G37*
G36*
X371840Y45540D02*
X365570D01*
Y24270D01*
X371840D01*
Y45540D01*
D02*
G37*
G36*
X363030D02*
X356760D01*
Y24270D01*
X363030D01*
Y45540D01*
D02*
G37*
G36*
X346440D02*
X340170D01*
Y24270D01*
X346440D01*
Y45540D01*
D02*
G37*
G36*
X337630D02*
X331360D01*
Y24270D01*
X337630D01*
Y45540D01*
D02*
G37*
G36*
X321040D02*
X314770D01*
Y24270D01*
X321040D01*
Y45540D01*
D02*
G37*
G36*
X312230D02*
X305960D01*
Y24270D01*
X312230D01*
Y45540D01*
D02*
G37*
G36*
X295640D02*
X289370D01*
Y24270D01*
X295640D01*
Y45540D01*
D02*
G37*
G36*
X286830D02*
X280560D01*
Y24270D01*
X286830D01*
Y45540D01*
D02*
G37*
G36*
X270240D02*
X263970D01*
Y24270D01*
X270240D01*
Y45540D01*
D02*
G37*
G36*
X261430D02*
X255160D01*
Y24270D01*
X261430D01*
Y45540D01*
D02*
G37*
G36*
X244840D02*
X238570D01*
Y24270D01*
X244840D01*
Y45540D01*
D02*
G37*
G36*
X236030D02*
X229760D01*
Y24270D01*
X236030D01*
Y45540D01*
D02*
G37*
G36*
X219440D02*
X213170D01*
Y24270D01*
X219440D01*
Y45540D01*
D02*
G37*
G36*
X210630D02*
X204360D01*
Y24270D01*
X210630D01*
Y45540D01*
D02*
G37*
G36*
X194040D02*
X187770D01*
Y24270D01*
X194040D01*
Y45540D01*
D02*
G37*
G36*
X185230D02*
X178960D01*
Y24270D01*
X185230D01*
Y45540D01*
D02*
G37*
G36*
X168640D02*
X162370D01*
Y24270D01*
X168640D01*
Y45540D01*
D02*
G37*
G36*
X159830D02*
X153560D01*
Y24270D01*
X159830D01*
Y45540D01*
D02*
G37*
G36*
X36871Y54000D02*
X33129D01*
X29458Y53270D01*
X26000Y51838D01*
X22888Y49758D01*
X20242Y47112D01*
X18162Y44000D01*
X16730Y40542D01*
X16000Y36871D01*
Y33129D01*
X16730Y29458D01*
X18162Y26000D01*
X20242Y22888D01*
X22888Y20242D01*
X26000Y18162D01*
X29458Y16730D01*
X33129Y16000D01*
X36871D01*
X40542Y16730D01*
X44000Y18162D01*
X47112Y20242D01*
X49758Y22888D01*
X51838Y26000D01*
X53270Y29458D01*
X54000Y33129D01*
Y36871D01*
X53270Y40542D01*
X51838Y44000D01*
X49758Y47112D01*
X47112Y49758D01*
X44000Y51838D01*
X40542Y53270D01*
X36871Y54000D01*
D02*
G37*
G36*
X466871Y54000D02*
X463129D01*
X459458Y53270D01*
X456000Y51838D01*
X452888Y49758D01*
X450242Y47112D01*
X448162Y44000D01*
X446730Y40542D01*
X446000Y36871D01*
Y33129D01*
X446730Y29458D01*
X448162Y26000D01*
X450242Y22888D01*
X452888Y20242D01*
X456000Y18162D01*
X459458Y16730D01*
X463129Y16000D01*
X466871D01*
X470542Y16730D01*
X474000Y18162D01*
X477112Y20242D01*
X479758Y22888D01*
X481838Y26000D01*
X483270Y29458D01*
X484000Y33129D01*
Y36871D01*
X483270Y40542D01*
X481838Y44000D01*
X479758Y47112D01*
X477112Y49758D01*
X474000Y51838D01*
X470542Y53270D01*
X466871Y54000D01*
D02*
G37*
%LPD*%
D23*
X327300Y66000D02*
D03*
Y110000D02*
D03*
X340000Y66000D02*
D03*
Y110000D02*
D03*
X352700Y66000D02*
D03*
Y110000D02*
D03*
X365400Y66000D02*
D03*
Y110000D02*
D03*
X378100Y66000D02*
D03*
Y110000D02*
D03*
D24*
X313500Y23000D02*
D03*
X338900D02*
D03*
X364300D02*
D03*
X161100D02*
D03*
X186500D02*
D03*
X211900D02*
D03*
X237300D02*
D03*
X262700D02*
D03*
X288100D02*
D03*
X135700D02*
D03*
D25*
X97500Y60000D02*
D03*
X112500D02*
D03*
D26*
X127900D02*
D03*
X142100D02*
D03*
D27*
X140000Y97900D02*
D03*
Y112100D02*
D03*
D28*
X18500Y127500D02*
D03*
X111500D02*
D03*
X18500Y82500D02*
D03*
X111500D02*
D03*
D29*
X135700Y23000D02*
X135850Y23150D01*
Y48850D02*
X136000Y49000D01*
X140000Y100000D02*
X174200D01*
X107777Y82567D02*
X127296D01*
X131629Y27071D02*
X135700Y23000D01*
X102929Y27071D02*
X131629D01*
X280000Y118000D02*
Y125000D01*
X205000Y200000D02*
Y217000D01*
Y200000D02*
X280000Y125000D01*
X224000Y155000D02*
Y156000D01*
X165000Y215000D02*
X224000Y156000D01*
X165000Y215000D02*
Y217000D01*
X131000Y194500D02*
X235000Y90500D01*
X131000Y194500D02*
Y195000D01*
X209600Y90000D02*
Y90700D01*
X131000Y169300D02*
X209600Y90700D01*
X131000Y169300D02*
Y170000D01*
X235000Y90000D02*
Y90500D01*
X280000Y118000D02*
X326100D01*
X296000Y135000D02*
X335000D01*
X340000Y130000D01*
X327300Y110000D02*
Y116800D01*
X326100Y118000D02*
X327300Y116800D01*
X110000Y202000D02*
X145000Y237000D01*
X110000Y145000D02*
Y202000D01*
X127296Y82567D02*
X129729Y85000D01*
X185000Y90000D02*
X205000Y70000D01*
X378100Y110000D02*
Y141900D01*
X314000Y66000D02*
X327300D01*
X75000Y55000D02*
X102929Y27071D01*
X111500Y127500D02*
X113471Y125529D01*
X137650Y114350D02*
X139900Y112100D01*
X340000Y110000D02*
Y130000D01*
X129729Y85000D02*
X130000D01*
X247715Y97715D02*
X255000Y105000D01*
X103500Y123000D02*
X105000Y124500D01*
X313580Y154740D02*
X365260D01*
X240000Y70000D02*
X247715Y77715D01*
X126571Y125529D02*
X137650Y114450D01*
X110000Y129000D02*
Y145000D01*
X85000Y80000D02*
X107777D01*
X255000Y105000D02*
X275000D01*
X75000Y55000D02*
Y70000D01*
X110000Y129000D02*
X111500Y127500D01*
X137650Y114350D02*
Y114450D01*
X130000Y85000D02*
X140000Y95000D01*
X205000Y70000D02*
X240000D01*
X174200Y100000D02*
X184200Y90000D01*
X113471Y125529D02*
X126571D01*
X103000Y123000D02*
X103500D01*
X365260Y154740D02*
X378100Y141900D01*
X275000Y105000D02*
X314000Y66000D01*
X85000Y60000D02*
X95000D01*
X139900Y112100D02*
X140000D01*
X112500Y60000D02*
X127900D01*
X130000Y85000D02*
X130000D01*
X247715Y77715D02*
Y97715D01*
X75000Y70000D02*
X85000Y80000D01*
X105000Y124500D02*
Y125000D01*
X313429Y154892D02*
X313580Y154740D01*
D30*
X135850Y23150D02*
Y48850D01*
D31*
X145000Y217000D02*
D03*
X235000Y90000D02*
D03*
X209600D02*
D03*
X260400D02*
D03*
X165000Y237000D02*
D03*
X205000Y217000D02*
D03*
X225000D02*
D03*
X145000Y237000D02*
D03*
X185000D02*
D03*
X165000Y217000D02*
D03*
X185000D02*
D03*
D32*
X184200Y90000D02*
D03*
D33*
X465000Y245000D02*
D03*
X35000D02*
D03*
X465000Y35000D02*
D03*
X35000Y35000D02*
D03*
D34*
X136000Y49000D02*
D03*
X224000Y155000D02*
D03*
X131000Y195000D02*
D03*
Y170000D02*
D03*
X296000Y135000D02*
D03*
X280000Y118000D02*
D03*
X130000Y85000D02*
D03*
X313429Y154892D02*
D03*
X85000Y60000D02*
D03*
X129052Y123729D02*
D03*
M02*
