G04*
G04 #@! TF.GenerationSoftware,Altium Limited,Altium Designer,23.4.1 (23)*
G04*
G04 Layer_Color=32896*
%FSLAX44Y44*%
%MOMM*%
G71*
G04*
G04 #@! TF.SameCoordinates,E4356CB4-9A03-4441-A28E-8BB409EA4FDF*
G04*
G04*
G04 #@! TF.FilePolarity,Positive*
G04*
G01*
G75*
%ADD10C,0.2000*%
%ADD11C,0.1500*%
%ADD12C,0.1000*%
%ADD35C,0.2540*%
G36*
X107500Y60000D02*
X103000Y62750D01*
Y57250D01*
X107500Y60000D01*
D02*
G37*
D10*
X82500Y105000D02*
G03*
X82500Y105000I-17500J0D01*
G01*
X84902Y46000D02*
X415102D01*
Y5000D02*
Y46000D01*
X84902Y5000D02*
Y46000D01*
D11*
X32500Y75000D02*
X97500D01*
Y135000D01*
X32500D02*
X97500D01*
X32500Y75000D02*
Y135000D01*
X149250Y55000D02*
Y65000D01*
X120750Y55000D02*
Y65000D01*
X390045Y38095D02*
X389092Y38571D01*
X387664Y39999D01*
Y30001D01*
X376524Y36666D02*
X377000Y35238D01*
X377952Y34286D01*
X379380Y33810D01*
X379856D01*
X381284Y34286D01*
X382237Y35238D01*
X382713Y36666D01*
Y37142D01*
X382237Y38571D01*
X381284Y39523D01*
X379856Y39999D01*
X379380D01*
X377952Y39523D01*
X377000Y38571D01*
X376524Y36666D01*
Y34286D01*
X377000Y31905D01*
X377952Y30477D01*
X379380Y30001D01*
X380332D01*
X381761Y30477D01*
X382237Y31429D01*
X122500Y38095D02*
X121548Y38571D01*
X120120Y39999D01*
Y30001D01*
D12*
X103000Y65000D02*
X107000D01*
X103000Y55000D02*
X107000D01*
D35*
X412303Y227540D02*
X422460D01*
X412303Y237697D01*
Y240236D01*
X414842Y242775D01*
X419921D01*
X422460Y240236D01*
X397068Y242775D02*
X402147Y240236D01*
X407225Y235158D01*
Y230079D01*
X404686Y227540D01*
X399607D01*
X397068Y230079D01*
Y232618D01*
X399607Y235158D01*
X407225D01*
X391990Y227540D02*
Y230079D01*
X389451D01*
Y227540D01*
X391990D01*
X379294Y240236D02*
X376755Y242775D01*
X371676D01*
X369137Y240236D01*
Y230079D01*
X371676Y227540D01*
X376755D01*
X379294Y230079D01*
Y240236D01*
X353902Y242775D02*
X364059D01*
Y235158D01*
X358980Y237697D01*
X356441D01*
X353902Y235158D01*
Y230079D01*
X356441Y227540D01*
X361520D01*
X364059Y230079D01*
X348824Y227540D02*
Y230079D01*
X346285D01*
Y227540D01*
X348824D01*
X325971D02*
X336128D01*
X325971Y237697D01*
Y240236D01*
X328510Y242775D01*
X333589D01*
X336128Y240236D01*
X320893D02*
X318354Y242775D01*
X313275D01*
X310736Y240236D01*
Y230079D01*
X313275Y227540D01*
X318354D01*
X320893Y230079D01*
Y240236D01*
X295501Y227540D02*
X305658D01*
X295501Y237697D01*
Y240236D01*
X298040Y242775D01*
X303119D01*
X305658Y240236D01*
X290423D02*
X287883Y242775D01*
X282805D01*
X280266Y240236D01*
Y237697D01*
X282805Y235158D01*
X285344D01*
X282805D01*
X280266Y232618D01*
Y230079D01*
X282805Y227540D01*
X287883D01*
X290423Y230079D01*
X202460Y270236D02*
X199921Y272775D01*
X194842D01*
X192303Y270236D01*
Y260079D01*
X194842Y257540D01*
X199921D01*
X202460Y260079D01*
Y270236D01*
X187225Y257540D02*
Y260079D01*
X184686D01*
Y257540D01*
X187225D01*
X174529D02*
X169451D01*
X171990D01*
Y272775D01*
X174529Y270236D01*
X422460Y257618D02*
Y272853D01*
X414842D01*
X412303Y270314D01*
Y265236D01*
X414842Y262697D01*
X422460D01*
X404686Y267775D02*
X399607D01*
X397068Y265236D01*
Y257618D01*
X404686D01*
X407225Y260158D01*
X404686Y262697D01*
X397068D01*
X391990Y257618D02*
X384372D01*
X381833Y260158D01*
X384372Y262697D01*
X389451D01*
X391990Y265236D01*
X389451Y267775D01*
X381833D01*
X376755Y257618D02*
X369137D01*
X366598Y260158D01*
X369137Y262697D01*
X374216D01*
X376755Y265236D01*
X374216Y267775D01*
X366598D01*
X361520Y257618D02*
Y272853D01*
X353902D01*
X351363Y270314D01*
Y265236D01*
X353902Y262697D01*
X361520D01*
X346285Y267775D02*
Y257618D01*
Y262697D01*
X343745Y265236D01*
X341206Y267775D01*
X338667D01*
X328510Y257618D02*
X323432D01*
X320893Y260158D01*
Y265236D01*
X323432Y267775D01*
X328510D01*
X331050Y265236D01*
Y260158D01*
X328510Y257618D01*
X310736Y252540D02*
X308197D01*
X305658Y255079D01*
Y267775D01*
X313275D01*
X315814Y265236D01*
Y260158D01*
X313275Y257618D01*
X305658D01*
X300579Y267775D02*
Y257618D01*
Y262697D01*
X298040Y265236D01*
X295501Y267775D01*
X292962D01*
X282805D02*
X277727D01*
X275188Y265236D01*
Y257618D01*
X282805D01*
X285344Y260158D01*
X282805Y262697D01*
X275188D01*
X270109Y257618D02*
Y267775D01*
X267570D01*
X265031Y265236D01*
Y257618D01*
Y265236D01*
X262492Y267775D01*
X259953Y265236D01*
Y257618D01*
X254874D02*
Y267775D01*
X252335D01*
X249796Y265236D01*
Y257618D01*
Y265236D01*
X247257Y267775D01*
X244718Y265236D01*
Y257618D01*
X232022D02*
X237100D01*
X239639Y260158D01*
Y265236D01*
X237100Y267775D01*
X232022D01*
X229482Y265236D01*
Y262697D01*
X239639D01*
X224404Y267775D02*
Y257618D01*
Y262697D01*
X221865Y265236D01*
X219326Y267775D01*
X216786D01*
M02*
